Coordinates
version=1
nRows=24
nColumns=24
inDegrees=yes

Units are S.I. units (second, meters, Newtons, ...)
Angles are in degrees.

endheader
time	pelvis_tilt	pelvis_list	pelvis_rotation	pelvis_tx	pelvis_ty	pelvis_tz	hip_flexion_r	hip_adduction_r	hip_rotation_r	knee_angle_r	ankle_angle_r	subtalar_angle_r	mtp_angle_r	hip_flexion_l	hip_adduction_l	hip_rotation_l	knee_angle_l	ankle_angle_l	subtalar_angle_l	mtp_angle_l	lumbar_extension	lumbar_bending	lumbar_rotation
      2.66000000	     12.40091386	      0.25993115	     -3.87572059	     -0.49103742	      0.94047378	      0.01041248	    -22.52808143	     -1.37243322	      4.49266364	    -11.40014006	     32.99571617	     12.18829357	      9.27647293	      3.47780212	     -1.32811645	    -29.74330359	     -1.70670342	      6.91082311	     33.90306726	     34.43114168	    -24.33898071	      1.59635905	      7.59382779
      2.66500000	     12.46491896	      0.20653934	     -3.96836821	     -0.48597650	      0.93989755	      0.00988461	    -22.80551670	     -1.41760267	      4.63862541	    -11.66310405	     33.09166128	     12.18005915	      9.32132436	      3.48504508	     -1.35504677	    -29.15329542	     -2.34394372	      6.85253626	     33.16942035	     34.40437827	    -24.35112672	      1.50751850	      7.59945651
      2.67000000	     12.52025620	      0.15464260	     -4.04795083	     -0.48092035	      0.93933285	      0.00933512	    -23.04634627	     -1.46016485	      4.75666522	    -11.98477506	     33.18709377	     12.18962761	      9.40675462	      3.49212408	     -1.37824956	    -28.44027172	     -2.98709684	      6.73315153	     32.29540930	     34.39019779	    -24.35323204	      1.41859475	      7.58545439
      2.67500000	     12.56489133	      0.11031636	     -4.12041859	     -0.47583532	      0.93880134	      0.00876178	    -23.25649315	     -1.51009773	      4.84801564	    -12.34949424	     33.26429706	     12.22553684	      9.54059116	      3.49737106	     -1.38780040	    -27.62763227	     -3.62257444	      6.54849954	     31.29862801	     34.39963930	    -24.33847439	      1.32188576	      7.55705940
      2.68000000	     12.60657029	      0.07342346	     -4.18338601	     -0.47074718	      0.93831326	      0.00814255	    -23.43203169	     -1.56848995	      4.89723500	    -12.77912872	     33.33368102	     12.30233866	      9.75572140	      3.49425935	     -1.38163007	    -26.72209415	     -4.24327508	      6.31005697	     30.20979757	     34.46056533	    -24.31939328	      1.22235837	      7.52098677
      2.68500000	     12.66140756	      0.05861452	     -4.25653693	     -0.46559724	      0.93791306	      0.00753977	    -23.62933391	     -1.65772075	      4.95543257	    -13.18628972	     33.34270429	     12.39465916	      9.97177122	      3.47123876	     -1.34753841	    -25.80486897	     -4.87662846	      6.03861915	     28.99106915	     34.51533348	    -24.30485545	      1.08897136	      7.49492196
      2.69000000	     12.72098848	      0.04851536	     -4.32333435	     -0.46047432	      0.93759034	      0.00685862	    -23.77394748	     -1.75870936	      4.92719521	    -13.69544503	     33.16027340	     12.50385841	     12.57199253	      3.41991397	     -1.28785162	    -24.80582883	     -5.43376151	      5.56453047	     27.58897565	     36.69540207	    -24.30078285	      0.95898568	      7.46791234
      2.69500000	     12.76390753	      0.05365800	     -4.36791169	     -0.45533589	      0.93731642	      0.00616213	    -23.89573506	     -1.86246794	      4.91186784	    -14.22826535	     33.13897782	     12.62965621	     12.61750888	      3.40472943	     -1.22070806	    -23.77121988	     -6.05981731	      5.26030635	     26.24733044	     36.70226968	    -24.27465361	      0.81704957	      7.40661219
      2.70000000	     12.80331745	      0.07271457	     -4.41191726	     -0.45021231	      0.93710900	      0.00539376	    -23.94775116	     -1.99415388	      4.79414170	    -14.89144807	     33.12024493	     12.94458247	     12.81144898	      3.38145181	     -1.12670378	    -22.70916890	     -6.65912555	      4.95251065	     24.87225286	     36.78743225	    -24.24679419	      0.66746978	      7.34204676
      2.70500000	     12.88215289	      0.12145420	     -4.46454174	     -0.44503698	      0.93704942	      0.00460020	    -24.03690073	     -2.17049411	      4.65423496	    -15.54143386	     32.86840796	     13.21705921	     14.88545659	      3.30252553	     -0.98583404	    -21.69607799	     -7.22792159	      4.50376846	     23.33893387	     38.67641806	    -24.25557758	      0.48285159	      7.28555391
      2.71000000	     12.90214529	      0.16492504	     -4.49101426	     -0.43991828	      0.93698912	      0.00377587	    -24.01436572	     -2.32406023	      4.50736695	    -16.29841145	     32.75902291	     13.50979745	     14.98539858	      3.31279225	     -0.86381537	    -20.65636838	     -7.87107888	      4.25226016	     21.93851423	     38.63389476	    -24.20625477	      0.31519931	      7.21284292
      2.71500000	     12.93698967	      0.23053291	     -4.51203275	     -0.43480402	      0.93701576	      0.00287676	    -23.95270971	     -2.51672588	      4.25853492	    -17.15884683	     32.61962853	     13.97659615	     15.23216012	      3.29990821	     -0.70721999	    -19.63653094	     -8.50309972	      4.03451445	     20.56834646	     38.59731024	    -24.17532446	      0.13214919	      7.13092232
      2.72000000	     12.96745869	      0.30881102	     -4.52431214	     -0.42969710	      0.93711324	      0.00192662	    -23.84288379	     -2.72918139	      3.95972177	    -18.09789203	     32.42424088	     14.50891220	     15.63167544	      3.28684193	     -0.53166641	    -18.65028476	     -9.13000094	      3.86475288	     19.26534120	     38.55852261	    -24.14091110	     -0.05634800	      7.04204218
      2.72500000	     13.04861968	      0.39385406	     -4.53743500	     -0.42456278	      0.93736855	      0.00097916	    -23.76096684	     -2.96042178	      3.63168835	    -19.05932597	     31.86907506	     14.95633117	     19.04470787	      3.20033597	     -0.34271801	    -17.75317163	     -9.73615263	      3.72836466	     18.04078049	     38.83803201	    -24.15994696	     -0.25612410	      6.96224755
      2.73000000	     13.05186552	      0.47042603	     -4.51911904	     -0.41953488	      0.93755862	     -0.00006373	    -23.52344730	     -3.17574856	      3.26993193	    -20.17510460	     31.59322407	     15.55420604	     19.28367647	      3.22391249	     -0.16904187	    -16.85100273	    -10.39182405	      3.70329438	     16.89637647	     38.71995463	    -24.10765663	     -0.42233207	      6.86970452
      2.73500000	     13.06430052	      0.60672321	     -4.50779547	     -0.41443625	      0.93783102	     -0.00115154	    -23.25227778	     -3.47862515	      2.81892830	    -21.36606292	     31.18263518	     16.27531442	     19.84507711	      3.19665688	      0.08252641	    -16.02263272	    -10.96998022	      3.70695382	     15.86153869	     38.52259892	    -24.05442004	     -0.64959574	      6.75167151
      2.74000000	     13.17799953	      0.69564183	     -4.48689649	     -0.40937835	      0.93831321	     -0.00221963	    -23.08127656	     -3.73878173	      2.40139867	    -22.52771981	     30.39046932	     16.81196069	     23.90039444	      3.04865834	      0.28113337	    -15.30391565	    -11.55916179	      3.81421596	     15.05477673	     37.29493013	    -24.12238225	     -0.83055937	      6.66468020
      2.74500000	     13.21277788	      0.81211219	     -4.46507741	     -0.40436944	      0.93872028	     -0.00332040	    -22.74455839	     -4.03841426	      1.94097101	    -23.84900478	     29.73592222	     17.50296403	     25.91003824	      2.98024875	      0.50242746	    -14.64522215	    -12.13682604	      4.03047302	     14.39271069	     35.79770520	    -24.10768023	     -1.03055173	      6.56919284
      2.75000000	     13.21335150	      0.95682828	     -4.44031798	     -0.39937943	      0.93911414	     -0.00447160	    -22.31095088	     -4.38226905	      1.45363591	    -25.28655028	     29.15598803	     18.31432365	     26.21717199	      2.91818222	      0.75935179	    -14.02949922	    -12.63652253	      4.19679627	     13.73827085	     35.55582622	    -24.05361847	     -1.24957542	      6.46736239
      2.75500000	     13.24708559	      1.13796332	     -4.40616606	     -0.39438986	      0.93960186	     -0.00566495	    -21.88179107	     -4.78132263	      0.92464332	    -26.76446147	     28.44519417	     19.13456663	     26.93977823	      2.78018296	      1.06547490	    -13.47208764	    -13.04906017	      4.34248609	     13.14602807	     35.12921828	    -24.03472460	     -1.50170148	      6.33254825
      2.76000000	     13.38471072	      1.24086687	     -4.40623239	     -0.38943792	      0.94029366	     -0.00668805	    -21.56307293	     -5.10499371	      0.53382765	    -28.16147568	     27.25707802	     19.65223649	     32.14874976	      2.51375836	      1.26277604	    -13.13509924	    -13.50061497	      4.81069078	     13.01811502	     32.26958167	    -24.14018641	     -1.69935834	      6.28148332
      2.76500000	     13.42661813	      1.39069663	     -4.38764594	     -0.38454808	      0.94085903	     -0.00780434	    -21.06112153	     -5.49350882	      0.07728570	    -29.73802417	     26.39206332	     20.52632326	     32.34977028	      2.31960836	      1.51215804	    -12.79728286	    -13.83421720	      5.03066535	     12.82154007	     32.04369207	    -24.14191803	     -1.92381744	      6.20806233
      2.77000000	     13.53997195	      1.54631438	     -4.38808133	     -0.37964438	      0.94158244	     -0.00883697	    -20.63332902	     -5.88875376	     -0.31324381	    -31.24681922	     25.12904161	     21.01819998	     36.37669803	      2.00231076	      1.76818670	    -12.56876132	    -14.11381673	      5.48072452	     12.82438373	     28.73284211	    -24.21963741	     -2.16985421	      6.10281112
      2.77500000	     13.59137421	      1.72805599	     -4.36288909	     -0.37479267	      0.94219676	     -0.00990799	    -20.08797082	     -6.31367409	     -0.72754548	    -32.87058046	     24.14736540	     21.74801359	     36.57619307	      1.72634313	      2.04850143	    -12.34835649	    -14.29846670	      5.75608661	     12.77746815	     28.44236372	    -24.23176452	     -2.42936844	      5.98007438
